<svg width="83" height="83" viewBox="0 0 83 83" fill="none" xmlns="http://www.w3.org/2000/svg">
<path d="M5.124 35.136H9.372V38.988C10.308 36.432 12.324 34.704 15.276 34.704C17.94 34.704 20.064 36.144 20.604 39.528C21.432 36.648 23.52 34.704 26.688 34.704C30.36 34.704 32.232 37.404 32.232 41.76V54H27.912V42.948C27.912 39.924 26.724 38.196 24.42 38.196C22.152 38.196 20.82 39.924 20.82 42.948V54H16.5V42.948C16.5 39.924 15.312 38.196 13.044 38.196C10.74 38.196 9.444 39.924 9.444 42.948V54H5.124V35.136ZM36.3428 28.188H40.6628V32.112H36.3428V28.188ZM36.3428 35.136H40.6628V54H36.3428V35.136ZM44.8489 27.864H49.1689V43.416L56.4049 35.136H61.3369L53.9209 43.056L62.1289 54H57.1249L54.2449 50.112C53.2009 48.708 52.1929 47.304 51.1849 45.9L49.1689 48.06V54H44.8489V27.864ZM78.9811 45.036H65.9491C66.1291 49.068 68.2171 51.12 71.0251 51.12C73.4371 51.12 74.9131 49.572 75.3091 47.736H79.0171C78.4411 51.696 75.2731 54.432 70.8811 54.432C65.4811 54.432 61.5931 50.544 61.5931 44.568C61.5931 38.592 65.5171 34.704 70.7731 34.704C76.4971 34.704 79.2691 38.988 78.9811 45.036ZM70.8091 37.764C68.3971 37.764 66.7411 39.276 66.1651 42.156H74.9491C74.5531 38.916 72.7891 37.764 70.8091 37.764Z" fill="white"/>
</svg>
